<?xml version="1.0" encoding="UTF-8"?>
<svg width="20cm" height="20cm" version="1.1" viewBox="40.016 -923.7 2834.6 2834.6" xmlns="http://www.w3.org/2000/svg" xmlns:xlink="http://www.w3.org/1999/xlink">
<desc>Exported by the ArtWorks SVGExport module.
  Source document: ADFS::Harddisc4.$.My Files.Role Playing.Spelljammer.Maps.Flow Maps.My Work.Flow_map_01-07-12</desc>
<g transform="translate(-2701.3 -1568)">
<path d="m4185.7 1921.3a140.3 141.66 0 0 1 112.71 151.28 140.3 141.66 0 0 1-136.9 129.34 140.3 141.66 0 0 1-142.03-123.58 140.3 141.66 0 0 1 106.48-155.81" fill-opacity="0" stroke="#000" stroke-dasharray="8.51738977,8.51738977" stroke-width="2.8391"/>
<path d="m4187.1 1354.4a707.24 707.52 0 0 1 678.67 719.63 707.24 707.52 0 0 1-704.02 694.84 707.24 707.52 0 0 1-710.09-688.63 707.24 707.52 0 0 1 672.34-725.56" fill-opacity="0" stroke="#000" stroke-dasharray="8.54750992,8.54750992" stroke-width="2.8492"/>
<path d="m4183.9 1496.2a565.5 565.79 0 0 1 540.12 576.56 565.5 565.79 0 0 1-562.78 554.45 565.5 565.79 0 0 1-567.88-549.21 565.5 565.79 0 0 1 534.77-581.53" fill-opacity="0" stroke="#000" stroke-dasharray="8.54363966,8.54363966" stroke-width="2.8479"/>
<path d="m4185.7 1637.9a423.77 424.21 0 0 1 396.48 435.72 423.77 424.21 0 0 1-421.2 411.82 423.77 424.21 0 0 1-425.82-407.04 423.77 424.21 0 0 1 391.54-440.17" fill-opacity="0" stroke="#000" stroke-dasharray="8.53872014,8.53872014" stroke-width="2.8462"/>
<path d="m4185.6 1779.6a282.03 282.69 0 0 1 254.83 293.29 282.03 282.69 0 0 1-278.51 270.79 282.03 282.69 0 0 1-284.71-264.24 282.03 282.69 0 0 1 247.97-299.13" fill-opacity="0" stroke="#000" stroke-dasharray="8.52972007,8.52972007" stroke-width="2.8432"/>
<path d="m4185.6 1212.6a848.97 849.21 0 0 1 821.86 860.64 848.97 849.21 0 0 1-845.56 837.35 848.97 849.21 0 0 1-852.09-830.7 848.97 849.21 0 0 1 815.1-867.05" fill-opacity="0" stroke="#000" stroke-dasharray="8.54985022,8.54985022" stroke-width="2.85"/>
<circle cx="18323" cy="2052.7" r="1548.3" fill-opacity="0" stroke="#000" stroke-width="21.502"/>
<path d="m4186.1 645.81a1415.9 1416 0 0 1 1388.4 1427.2 1415.9 1416 0 0 1-1411.3 1404.6 1415.9 1416 0 0 1-1420.3-1395.4 1415.9 1416 0 0 1 1379.1-1436.1" fill-opacity="0" stroke="#000" stroke-dasharray="8.55476977,8.55476977" stroke-width="2.8516"/>
<path d="m4186.7 929.3a1132.4 1132.6 0 0 1 1104.3 1145 1132.4 1132.6 0 0 1-1129.8 1119.8 1132.4 1132.6 0 0 1-1134.9-1114.7 1132.4 1132.6 0 0 1 1099.1-1150" fill-opacity="0" stroke="#000" stroke-dasharray="8.55275988,8.55275988" stroke-width="2.8509"/>
<path d="m4187.9 1071a990.7 990.89 0 0 1 961.31 1004.1 990.7 990.89 0 0 1-988.6 977.24 990.7 990.89 0 0 1-992.55-973.23 990.7 990.89 0 0 1 957.24-1008" fill-opacity="0" stroke="#000" stroke-dasharray="8.55150033,8.55150033" stroke-width="2.8505"/>
<path d="m4186 787.5a1274.2 1274.3 0 0 1 1246.7 1286.1 1274.2 1274.3 0 0 1-1270.9 1262.2 1274.2 1274.3 0 0 1-1277.2-1255.9 1274.2 1274.3 0 0 1 1240.3-1292.3" fill-opacity="0" stroke="#000" stroke-dasharray="8.55389999,8.55389999" stroke-width="2.8513"/>
<text x="4131.1396" y="1926.6471" fill="#000000" font-size="10px" stroke-dasharray="21.25979947,21.25979947" stroke-width="7.0866" xml:space="preserve"><tspan x="4131.1396" y="1926.6471" fill="#000000" font-size="10px" stroke-dasharray="21.25979947,21.25979947" stroke-width="7.0866">20M miles</tspan></text>
<text x="4130.0728" y="1784.3661" fill="#000000" font-size="10px" stroke-dasharray="21.25979947,21.25979947" stroke-width="7.0866" xml:space="preserve"><tspan x="4130.0728" y="1784.3661" fill="#000000" font-size="10px" stroke-dasharray="21.25979947,21.25979947" stroke-width="7.0866">40M miles</tspan></text>
<text x="4129.915" y="1641.7371" fill="#000000" font-size="10px" stroke-dasharray="21.25979947,21.25979947" stroke-width="7.0866" xml:space="preserve"><tspan x="4129.915" y="1641.7371" fill="#000000" font-size="10px" stroke-dasharray="21.25979947,21.25979947" stroke-width="7.0866">60M miles</tspan></text>
<text x="4130.5088" y="1500.5167" fill="#000000" font-size="10px" stroke-dasharray="21.25979947,21.25979947" stroke-width="7.0866" xml:space="preserve"><tspan x="4130.5088" y="1500.5167" fill="#000000" font-size="10px" stroke-dasharray="21.25979947,21.25979947" stroke-width="7.0866">80M miles</tspan></text>
<text x="4125.9639" y="1358.9421" fill="#000000" font-size="10px" stroke-dasharray="21.25979947,21.25979947" stroke-width="7.0866" xml:space="preserve"><tspan x="4125.9639" y="1358.9421" fill="#000000" font-size="10px" stroke-dasharray="21.25979947,21.25979947" stroke-width="7.0866">100M miles</tspan></text>
<text x="4124.98" y="1217.4252" fill="#000000" font-size="10px" stroke-dasharray="21.25979947,21.25979947" stroke-width="7.0866" xml:space="preserve"><tspan x="4124.98" y="1217.4252" fill="#000000" font-size="10px" stroke-dasharray="21.25979947,21.25979947" stroke-width="7.0866">120M miles</tspan></text>
<text x="4126.9141" y="1075.7767" fill="#000000" font-size="10px" stroke-dasharray="21.25979947,21.25979947" stroke-width="7.0866" xml:space="preserve"><tspan x="4126.9141" y="1075.7767" fill="#000000" font-size="10px" stroke-dasharray="21.25979947,21.25979947" stroke-width="7.0866">140M miles</tspan></text>
<text x="4126.9316" y="933.04895" fill="#000000" font-size="10px" stroke-dasharray="21.25979947,21.25979947" stroke-width="7.0866" xml:space="preserve"><tspan x="4126.9316" y="933.04895" fill="#000000" font-size="10px" stroke-dasharray="21.25979947,21.25979947" stroke-width="7.0866">160M miles</tspan></text>
<text x="4126.3867" y="792.68719" fill="#000000" font-size="10px" stroke-dasharray="21.25979947,21.25979947" stroke-width="7.0866" xml:space="preserve"><tspan x="4126.3867" y="792.68719" fill="#000000" font-size="10px" stroke-dasharray="21.25979947,21.25979947" stroke-width="7.0866">180M miles</tspan></text>
<text x="4126.54" y="652.65222" fill="#000000" font-size="10px" stroke-dasharray="21.25979947,21.25979947" stroke-width="7.0866" xml:space="preserve"><tspan x="4126.54" y="652.65222" fill="#000000" font-size="10px" stroke-dasharray="21.25979947,21.25979947" stroke-width="7.0866">200M miles</tspan></text>
</g>
</svg>