<?xml version="1.0" encoding="UTF-8"?>
<svg width="28cm" height="28.003cm" version="1.1" viewBox="40.016 -923.7 3968.5 3968.9" xmlns="http://www.w3.org/2000/svg" xmlns:xlink="http://www.w3.org/1999/xlink">
<desc>Exported by the ArtWorks SVGExport module.
  Source document: ADFS::Harddisc4.$.My Files.Role Playing.Spelljammer.Maps.Flow Maps.My Work.Flow_map_01-07-12</desc>
<g transform="translate(-2138.2 -1004.4)">
<path d="m4203.6 1926a140.29 142.77 0 0 1 97.453 158.9 140.29 142.77 0 0 1-141.04 120.35 140.29 142.77 0 0 1-136.77-125.35 140.29 142.77 0 0 1 102.91-155.3" fill-opacity="0" stroke="#FFF" stroke-dasharray="8.55056978,8.55056978" stroke-width="2.8502"/>
<path d="m4202.3 1357.9a707.24 707.67 0 0 1 667.13 727.64 707.24 707.67 0 0 1-709.26 686.59 707.24 707.67 0 0 1-704.71-691.26 707.24 707.67 0 0 1 671.92-723.21" fill-opacity="0" stroke="#FFF" stroke-dasharray="8.5484097,8.5484097" stroke-width="2.8495"/>
<path d="m4203.1 1499.8a565.5 566.06 0 0 1 524.56 586.21 565.5 566.06 0 0 1-567.72 544.44 565.5 566.06 0 0 1-562.65-549.69 565.5 566.06 0 0 1 529.97-581.32" fill-opacity="0" stroke="#FFF" stroke-dasharray="8.54565023,8.54565023" stroke-width="2.8486"/>
<path d="m4204.7 1641.8a423.77 424.53 0 0 1 380.97 445.21 423.77 424.53 0 0 1-426.43 401.72 423.77 424.53 0 0 1-420.19-408.27 423.77 424.53 0 0 1 387.78-439.27" fill-opacity="0" stroke="#FFF" stroke-dasharray="8.54193019,8.54193019" stroke-width="2.8473"/>
<path d="m4202.7 1783.4a282.03 283.21 0 0 1 241.05 301.58 282.03 283.21 0 0 1-283.29 261.95 282.03 283.21 0 0 1-279.46-266.06 282.03 283.21 0 0 1 245.39-298.03" fill-opacity="0" stroke="#FFF" stroke-dasharray="8.53751993,8.53751993" stroke-width="2.8458"/>
<path d="m4203.1 1216.2a848.97 849.34 0 0 1 808.14 869.9 848.97 849.34 0 0 1-851.16 827.82 848.97 849.34 0 0 1-846.35-832.74 848.97 849.34 0 0 1 813.16-865.2" fill-opacity="0" stroke="#FFF" stroke-dasharray="8.5505097,8.5505097" stroke-width="2.8502"/>
<circle cx="18323" cy="2052.7" r="1548.3" fill-opacity="0" stroke="#FFF" stroke-width="21.502"/>
<path d="m4204.4 365.69a1699.4 1699.6 0 0 1 1657.4 1721.2 1699.4 1699.6 0 0 1-1701.7 1677.4 1699.4 1699.6 0 0 1-1696.8-1682.3 1699.4 1699.6 0 0 1 1662.4-1716.4" fill-opacity="0" stroke="#FFF" stroke-dasharray="8.55632974,8.55632974" stroke-width="2.8521"/>
<path d="m4203.1 82.182a1982.8 1983 0 0 1 1942.1 2003.8 1982.8 1983 0 0 1-1984.5 1961.8 1982.8 1983 0 0 1-1981-1965.4 1982.8 1983 0 0 1 1945.7-2000.3" fill-opacity="0" stroke="#FFF" stroke-dasharray="8.50403, 8.50403" stroke-width="2.8347"/>
<path d="m4203.8 649.19a1415.9 1416.1 0 0 1 1374.4 1437.6 1415.9 1416.1 0 0 1-1418.5 1394.1 1415.9 1416.1 0 0 1-1413-1399.6 1415.9 1416.1 0 0 1 1380-1432.2" fill-opacity="0" stroke="#FFF" stroke-dasharray="8.55507015,8.55507015" stroke-width="2.8517"/>
<path d="m4202.6 932.68a1132.4 1132.7 0 0 1 1092.2 1153.4 1132.4 1132.7 0 0 1-1134.9 1111.3 1132.4 1132.7 0 0 1-1129.7-1116.6 1132.4 1132.7 0 0 1 1097.5-1148.2" fill-opacity="0" stroke="#FFF" stroke-dasharray="8.55323981,8.55323981" stroke-width="2.8511"/>
<path d="m4203.8 1074.4a990.7 991.03 0 0 1 949.15 1012.2 990.7 991.03 0 0 1-993.17 969 990.7 991.03 0 0 1-987.85-974.42 990.7 991.03 0 0 1 954.67-1007" fill-opacity="0" stroke="#FFF" stroke-dasharray="8.5520997,8.5520997" stroke-width="2.8507"/>
<path d="m4203.4 790.92a1274.2 1274.4 0 0 1 1233.1 1295.5 1274.2 1274.4 0 0 1-1276.5 1252.7 1274.2 1274.4 0 0 1-1271.5-1257.7 1274.2 1274.4 0 0 1 1238.2-1290.6" fill-opacity="0" stroke="#FFF" stroke-dasharray="8.55428981,8.55428981" stroke-width="2.8514"/>
<path d="m4203.4 507.41a1557.6 1557.8 0 0 1 1516.6 1578.8 1557.6 1557.8 0 0 1-1559.6 1536.4 1557.6 1557.8 0 0 1-1555.4-1540.6 1557.6 1557.8 0 0 1 1520.9-1574.7" fill-opacity="0" stroke="#FFF" stroke-dasharray="8.55575966,8.55575966" stroke-width="2.8519"/>
<path d="m4202.8 223.91a1841.1 1841.3 0 0 1 1800.7 1861.8 1841.1 1841.3 0 0 1-1842.5 1820.4 1841.1 1841.3 0 0 1-1839.5-1823.4 1841.1 1841.3 0 0 1 1803.8-1858.7" fill-opacity="0" stroke="#FFF" stroke-dasharray="8.55678034,8.55678034" stroke-width="2.8523"/>
<text x="4136.9248" y="1928.6759" fill="#FFFFFF" font-size="10px" stroke-width="7.0866" xml:space="preserve"><tspan x="4136.9248" y="1928.6759" fill="#FFFFFF" font-size="10px" stroke-width="7.0866">400M miles</tspan></text>
<text x="4136.2471" y="1788.3612" fill="#FFFFFF" font-size="10px" stroke-width="7.0866" xml:space="preserve"><tspan x="4136.2471" y="1788.3612" fill="#FFFFFF" font-size="10px" stroke-width="7.0866">800M miles</tspan></text>
<text x="4132.8208" y="1645.369" fill="#FFFFFF" font-size="10px" stroke-width="7.0866" xml:space="preserve"><tspan x="4132.8208" y="1645.369" fill="#FFFFFF" font-size="10px" stroke-width="7.0866">1200M miles</tspan></text>
<text x="4132.3247" y="1502.6959" fill="#FFFFFF" font-size="10px" stroke-width="7.0866" xml:space="preserve"><tspan x="4132.3247" y="1502.6959" fill="#FFFFFF" font-size="10px" stroke-width="7.0866">1600M miles</tspan></text>
<text x="4133.2275" y="1360.0317" fill="#FFFFFF" font-size="10px" stroke-width="7.0866" xml:space="preserve"><tspan x="4133.2275" y="1360.0317" fill="#FFFFFF" font-size="10px" stroke-width="7.0866">2000M miles</tspan></text>
<text x="4133.3335" y="1218.8781" fill="#FFFFFF" font-size="10px" stroke-width="7.0866" xml:space="preserve"><tspan x="4133.3335" y="1218.8781" fill="#FFFFFF" font-size="10px" stroke-width="7.0866">2400M miles</tspan></text>
<text x="4132.7256" y="1077.9559" fill="#FFFFFF" font-size="10px" stroke-width="7.0866" xml:space="preserve"><tspan x="4132.7256" y="1077.9559" fill="#FFFFFF" font-size="10px" stroke-width="7.0866">2800M miles</tspan></text>
<text x="4133.106" y="936.31769" fill="#FFFFFF" font-size="10px" stroke-width="7.0866" xml:space="preserve"><tspan x="4133.106" y="936.31769" fill="#FFFFFF" font-size="10px" stroke-width="7.0866">3200M miles</tspan></text>
<text x="4132.1978" y="795.95593" fill="#FFFFFF" font-size="10px" stroke-width="7.0866" xml:space="preserve"><tspan x="4132.1978" y="795.95593" fill="#FFFFFF" font-size="10px" stroke-width="7.0866">3600M miles</tspan></text>
<text x="4132.3511" y="653.3786" fill="#FFFFFF" font-size="10px" stroke-width="7.0866" xml:space="preserve"><tspan x="4132.3511" y="653.3786" fill="#FFFFFF" font-size="10px" stroke-width="7.0866">4000M miles</tspan></text>
<text x="4133.8037" y="512.09589" fill="#FFFFFF" font-size="10px" stroke-width="7.0866" xml:space="preserve"><tspan x="4133.8037" y="512.09589" fill="#FFFFFF" font-size="10px" stroke-width="7.0866">4400M miles</tspan></text>
<text x="4133.0771" y="370.45004" fill="#FFFFFF" font-size="10px" stroke-width="7.0866" xml:space="preserve"><tspan x="4133.0771" y="370.45004" fill="#FFFFFF" font-size="10px" stroke-width="7.0866">4800M miles</tspan></text>
<text x="4127.6294" y="229.53056" fill="#FFFFFF" font-size="10px" stroke-width="7.0866" xml:space="preserve"><tspan x="4127.6294" y="229.53056" fill="#FFFFFF" font-size="10px" stroke-width="7.0866">5200MM miles</tspan></text>
<text x="4129.8086" y="88.611145" fill="#FFFFFF" font-size="10px" stroke-width="7.0866" xml:space="preserve"><tspan x="4129.8086" y="88.611145" fill="#FFFFFF" font-size="10px" stroke-width="7.0866">5800MM miles</tspan></text>
</g>
</svg>
