<?xml version="1.0" encoding="UTF-8"?>
<svg width="56.689cm" height="39.891cm" version="1.1" viewBox="40.016 -923.7 8034.7 5653.8" xmlns="http://www.w3.org/2000/svg" xmlns:xlink="http://www.w3.org/1999/xlink">
<desc>Exported by the ArtWorks SVGExport module.
  Source document: ADFS::Harddisc4.$.My Files.Role Playing.Spelljammer.Maps.Flow Maps.My Work.Flow_map_01-07-12</desc>
<g transform="matrix(1 0 0 -1 -150.8 4880.2)" clip-rule="evenodd" fill-rule="evenodd" stroke-linejoin="bevel" stroke-miterlimit="16">
<g opacity=".5">
<defs>
<symbol id="a">
<path d="m226.76 538.55h354.3v-354.3" fill="none" stroke="#000" stroke-linejoin="miter" stroke-width="1.25"/>
</symbol>
</defs>
<use xlink:href="#a"/>
<use y="354.32809" xlink:href="#a"/>
<use y="708.65631" xlink:href="#a"/>
<use y="1062.9844" xlink:href="#a"/>
<use y="1417.3125" xlink:href="#a"/>
<use y="1771.6406" xlink:href="#a"/>
<use y="2125.9688" xlink:href="#a"/>
<use y="2480.2969" xlink:href="#a"/>
<use y="2834.625" xlink:href="#a"/>
<use y="3188.9531" xlink:href="#a"/>
<use y="3543.2812" xlink:href="#a"/>
<use y="3897.6094" xlink:href="#a"/>
<use y="4251.9375" xlink:href="#a"/>
<use y="4606.2656" xlink:href="#a"/>
<use y="4960.5938" xlink:href="#a"/>
<use transform="matrix(1 0 0 .74523 -.030723 1401)" y="5314.9219" xlink:href="#a"/>
<use x="354.32809" xlink:href="#a"/>
<use x="354.32809" y="354.32809" xlink:href="#a"/>
<use x="354.32809" y="708.65631" xlink:href="#a"/>
<use x="354.32809" y="1062.9844" xlink:href="#a"/>
<use x="354.32809" y="1417.3125" xlink:href="#a"/>
<use x="354.32809" y="1771.6406" xlink:href="#a"/>
<use x="354.32809" y="2125.9688" xlink:href="#a"/>
<use x="354.32809" y="2480.2969" xlink:href="#a"/>
<use x="354.32809" y="2834.625" xlink:href="#a"/>
<use x="354.32809" y="3188.9531" xlink:href="#a"/>
<use x="354.32809" y="3543.2812" xlink:href="#a"/>
<use x="354.32809" y="3897.6094" xlink:href="#a"/>
<use x="354.32809" y="4251.9375" xlink:href="#a"/>
<use x="354.32809" y="4606.2656" xlink:href="#a"/>
<use x="354.32809" y="4960.5938" xlink:href="#a"/>
<use transform="matrix(1 0 0 .74523 -.030723 1401)" x="354.32809" y="5314.9219" xlink:href="#a"/>
<use x="708.65631" xlink:href="#a"/>
<use x="708.65631" y="354.32809" xlink:href="#a"/>
<use x="708.65631" y="708.65631" xlink:href="#a"/>
<use x="708.65631" y="1062.9844" xlink:href="#a"/>
<use x="708.65631" y="1417.3125" xlink:href="#a"/>
<use x="708.65631" y="1771.6406" xlink:href="#a"/>
<use x="708.65631" y="2125.9688" xlink:href="#a"/>
<use x="708.65631" y="2480.2969" xlink:href="#a"/>
<use x="708.65631" y="2834.625" xlink:href="#a"/>
<use x="708.65631" y="3188.9531" xlink:href="#a"/>
<use x="708.65631" y="3543.2812" xlink:href="#a"/>
<use x="708.65631" y="3897.6094" xlink:href="#a"/>
<use x="708.65631" y="4251.9375" xlink:href="#a"/>
<use x="708.65631" y="4606.2656" xlink:href="#a"/>
<use x="708.65631" y="4960.5938" xlink:href="#a"/>
<use transform="matrix(1 0 0 .74523 -.030723 1401)" x="708.65631" y="5314.9219" xlink:href="#a"/>
<use x="1062.9844" xlink:href="#a"/>
<use x="1062.9844" y="354.32809" xlink:href="#a"/>
<use x="1062.9844" y="708.65631" xlink:href="#a"/>
<use x="1062.9844" y="1062.9844" xlink:href="#a"/>
<use x="1062.9844" y="1417.3125" xlink:href="#a"/>
<use x="1062.9844" y="1771.6406" xlink:href="#a"/>
<use x="1062.9844" y="2125.9688" xlink:href="#a"/>
<use x="1062.9844" y="2480.2969" xlink:href="#a"/>
<use x="1062.9844" y="2834.625" xlink:href="#a"/>
<use x="1062.9844" y="3188.9531" xlink:href="#a"/>
<use x="1062.9844" y="3543.2812" xlink:href="#a"/>
<use x="1062.9844" y="3897.6094" xlink:href="#a"/>
<use x="1062.9844" y="4251.9375" xlink:href="#a"/>
<use x="1062.9844" y="4606.2656" xlink:href="#a"/>
<use x="1062.9844" y="4960.5938" xlink:href="#a"/>
<use transform="matrix(1 0 0 .74523 -.030723 1401)" x="1062.9844" y="5314.9219" xlink:href="#a"/>
<use x="1417.3125" xlink:href="#a"/>
<use x="1417.3125" y="354.32809" xlink:href="#a"/>
<use x="1417.3125" y="708.65631" xlink:href="#a"/>
<use x="1417.3125" y="1062.9844" xlink:href="#a"/>
<use x="1417.3125" y="1417.3125" xlink:href="#a"/>
<use x="1417.3125" y="1771.6406" xlink:href="#a"/>
<use x="1417.3125" y="2125.9688" xlink:href="#a"/>
<use x="1417.3125" y="2480.2969" xlink:href="#a"/>
<use x="1417.3125" y="2834.625" xlink:href="#a"/>
<use x="1417.3125" y="3188.9531" xlink:href="#a"/>
<use x="1417.3125" y="3543.2812" xlink:href="#a"/>
<use x="1417.3125" y="3897.6094" xlink:href="#a"/>
<use x="1417.3125" y="4251.9375" xlink:href="#a"/>
<use x="1417.3125" y="4606.2656" xlink:href="#a"/>
<use x="1417.3125" y="4960.5938" xlink:href="#a"/>
<use transform="matrix(1 0 0 .74523 -.030723 1401)" x="1417.3125" y="5314.9219" xlink:href="#a"/>
<use x="1771.6406" xlink:href="#a"/>
<use x="1771.6406" y="354.32809" xlink:href="#a"/>
<use x="1771.6406" y="708.65631" xlink:href="#a"/>
<use x="1771.6406" y="1062.9844" xlink:href="#a"/>
<use x="1771.6406" y="1417.3125" xlink:href="#a"/>
<use x="1771.6406" y="1771.6406" xlink:href="#a"/>
<use x="1771.6406" y="2125.9688" xlink:href="#a"/>
<use x="1771.6406" y="2480.2969" xlink:href="#a"/>
<use x="1771.6406" y="2834.625" xlink:href="#a"/>
<use x="1771.6406" y="3188.9531" xlink:href="#a"/>
<use x="1771.6406" y="3543.2812" xlink:href="#a"/>
<use x="1771.6406" y="3897.6094" xlink:href="#a"/>
<use x="1771.6406" y="4251.9375" xlink:href="#a"/>
<use x="1771.6406" y="4606.2656" xlink:href="#a"/>
<use x="1771.6406" y="4960.5938" xlink:href="#a"/>
<use transform="matrix(1 0 0 .74523 -.030723 1401)" x="1771.6406" y="5314.9219" xlink:href="#a"/>
<use x="2125.9688" xlink:href="#a"/>
<use x="2125.9688" y="354.32809" xlink:href="#a"/>
<use x="2125.9688" y="708.65631" xlink:href="#a"/>
<use x="2125.9688" y="1062.9844" xlink:href="#a"/>
<use x="2125.9688" y="1417.3125" xlink:href="#a"/>
<use x="2125.9688" y="1771.6406" xlink:href="#a"/>
<use x="2125.9688" y="2125.9688" xlink:href="#a"/>
<use x="2125.9688" y="2480.2969" xlink:href="#a"/>
<use x="2125.9688" y="2834.625" xlink:href="#a"/>
<use x="2125.9688" y="3188.9531" xlink:href="#a"/>
<use x="2125.9688" y="3543.2812" xlink:href="#a"/>
<use x="2125.9688" y="3897.6094" xlink:href="#a"/>
<use x="2125.9688" y="4251.9375" xlink:href="#a"/>
<use x="2125.9688" y="4606.2656" xlink:href="#a"/>
<use x="2125.9688" y="4960.5938" xlink:href="#a"/>
<use transform="matrix(1 0 0 .74523 -.030723 1401)" x="2125.9688" y="5314.9219" xlink:href="#a"/>
<use x="2480.2969" xlink:href="#a"/>
<use x="2480.2969" y="354.32809" xlink:href="#a"/>
<use x="2480.2969" y="708.65631" xlink:href="#a"/>
<use x="2480.2969" y="1062.9844" xlink:href="#a"/>
<use x="2480.2969" y="1417.3125" xlink:href="#a"/>
<use x="2480.2969" y="1771.6406" xlink:href="#a"/>
<use x="2480.2969" y="2125.9688" xlink:href="#a"/>
<use x="2480.2969" y="2480.2969" xlink:href="#a"/>
<use x="2480.2969" y="2834.625" xlink:href="#a"/>
<use x="2480.2969" y="3188.9531" xlink:href="#a"/>
<use x="2480.2969" y="3543.2812" xlink:href="#a"/>
<use x="2480.2969" y="3897.6094" xlink:href="#a"/>
<use x="2480.2969" y="4251.9375" xlink:href="#a"/>
<use x="2480.2969" y="4606.2656" xlink:href="#a"/>
<use x="2480.2969" y="4960.5938" xlink:href="#a"/>
<use transform="matrix(1 0 0 .74523 -.030723 1401)" x="2480.2969" y="5314.9219" xlink:href="#a"/>
<use x="2834.625" xlink:href="#a"/>
<use x="2834.625" y="354.32809" xlink:href="#a"/>
<use x="2834.625" y="708.65631" xlink:href="#a"/>
<use x="2834.625" y="1062.9844" xlink:href="#a"/>
<use x="2834.625" y="1417.3125" xlink:href="#a"/>
<use x="2834.625" y="1771.6406" xlink:href="#a"/>
<use x="2834.625" y="2125.9688" xlink:href="#a"/>
<use x="2834.625" y="2480.2969" xlink:href="#a"/>
<use x="2834.625" y="2834.625" xlink:href="#a"/>
<use x="2834.625" y="3188.9531" xlink:href="#a"/>
<use x="2834.625" y="3543.2812" xlink:href="#a"/>
<use x="2834.625" y="3897.6094" xlink:href="#a"/>
<use x="2834.625" y="4251.9375" xlink:href="#a"/>
<use x="2834.625" y="4606.2656" xlink:href="#a"/>
<use x="2834.625" y="4960.5938" xlink:href="#a"/>
<use transform="matrix(1 0 0 .74523 -.030723 1401)" x="2834.625" y="5314.9219" xlink:href="#a"/>
<use x="3188.9531" xlink:href="#a"/>
<use x="3188.9531" y="354.32809" xlink:href="#a"/>
<use x="3188.9531" y="708.65631" xlink:href="#a"/>
<use x="3188.9531" y="1062.9844" xlink:href="#a"/>
<use x="3188.9531" y="1417.3125" xlink:href="#a"/>
<use x="3188.9531" y="1771.6406" xlink:href="#a"/>
<use x="3188.9531" y="2125.9688" xlink:href="#a"/>
<use x="3188.9531" y="2480.2969" xlink:href="#a"/>
<use x="3188.9531" y="2834.625" xlink:href="#a"/>
<use x="3188.9531" y="3188.9531" xlink:href="#a"/>
<use x="3188.9531" y="3543.2812" xlink:href="#a"/>
<use x="3188.9531" y="3897.6094" xlink:href="#a"/>
<use x="3188.9531" y="4251.9375" xlink:href="#a"/>
<use x="3188.9531" y="4606.2656" xlink:href="#a"/>
<use x="3188.9531" y="4960.5938" xlink:href="#a"/>
<use transform="matrix(1 0 0 .74523 -.030723 1401)" x="3188.9531" y="5314.9219" xlink:href="#a"/>
<use x="3543.2812" xlink:href="#a"/>
<use x="3543.2812" y="354.32809" xlink:href="#a"/>
<use x="3543.2812" y="708.65631" xlink:href="#a"/>
<use x="3543.2812" y="1062.9844" xlink:href="#a"/>
<use x="3543.2812" y="1417.3125" xlink:href="#a"/>
<use x="3543.2812" y="1771.6406" xlink:href="#a"/>
<use x="3543.2812" y="2125.9688" xlink:href="#a"/>
<use x="3543.2812" y="2480.2969" xlink:href="#a"/>
<use x="3543.2812" y="2834.625" xlink:href="#a"/>
<use x="3543.2812" y="3188.9531" xlink:href="#a"/>
<use x="3543.2812" y="3543.2812" xlink:href="#a"/>
<use x="3543.2812" y="3897.6094" xlink:href="#a"/>
<use x="3543.2812" y="4251.9375" xlink:href="#a"/>
<use x="3543.2812" y="4606.2656" xlink:href="#a"/>
<use x="3543.2812" y="4960.5938" xlink:href="#a"/>
<use transform="matrix(1 0 0 .74523 -.030723 1401)" x="3543.2812" y="5314.9219" xlink:href="#a"/>
<use x="3897.6094" xlink:href="#a"/>
<use x="3897.6094" y="354.32809" xlink:href="#a"/>
<use x="3897.6094" y="708.65631" xlink:href="#a"/>
<use x="3897.6094" y="1062.9844" xlink:href="#a"/>
<use x="3897.6094" y="1417.3125" xlink:href="#a"/>
<use x="3897.6094" y="1771.6406" xlink:href="#a"/>
<use x="3897.6094" y="2125.9688" xlink:href="#a"/>
<use x="3897.6094" y="2480.2969" xlink:href="#a"/>
<use x="3897.6094" y="2834.625" xlink:href="#a"/>
<use x="3897.6094" y="3188.9531" xlink:href="#a"/>
<use x="3897.6094" y="3543.2812" xlink:href="#a"/>
<use x="3897.6094" y="3897.6094" xlink:href="#a"/>
<use x="3897.6094" y="4251.9375" xlink:href="#a"/>
<use x="3897.6094" y="4606.2656" xlink:href="#a"/>
<use x="3897.6094" y="4960.5938" xlink:href="#a"/>
<use transform="matrix(1 0 0 .74523 -.030723 1401)" x="3897.6094" y="5314.9219" xlink:href="#a"/>
<use x="4251.9375" xlink:href="#a"/>
<use x="4251.9375" y="354.32809" xlink:href="#a"/>
<use x="4251.9375" y="708.65631" xlink:href="#a"/>
<use x="4251.9375" y="1062.9844" xlink:href="#a"/>
<use x="4251.9375" y="1417.3125" xlink:href="#a"/>
<use x="4251.9375" y="1771.6406" xlink:href="#a"/>
<use x="4251.9375" y="2125.9688" xlink:href="#a"/>
<use x="4251.9375" y="2480.2969" xlink:href="#a"/>
<use x="4251.9375" y="2834.625" xlink:href="#a"/>
<use x="4251.9375" y="3188.9531" xlink:href="#a"/>
<use x="4251.9375" y="3543.2812" xlink:href="#a"/>
<use x="4251.9375" y="3897.6094" xlink:href="#a"/>
<use x="4251.9375" y="4251.9375" xlink:href="#a"/>
<use x="4251.9375" y="4606.2656" xlink:href="#a"/>
<use x="4251.9375" y="4960.5938" xlink:href="#a"/>
<use transform="matrix(1 0 0 .74523 -.030723 1401)" x="4251.9375" y="5314.9219" xlink:href="#a"/>
<use x="4606.2656" xlink:href="#a"/>
<use x="4606.2656" y="354.32809" xlink:href="#a"/>
<use x="4606.2656" y="708.65631" xlink:href="#a"/>
<use x="4606.2656" y="1062.9844" xlink:href="#a"/>
<use x="4606.2656" y="1417.3125" xlink:href="#a"/>
<use x="4606.2656" y="1771.6406" xlink:href="#a"/>
<use x="4606.2656" y="2125.9688" xlink:href="#a"/>
<use x="4606.2656" y="2480.2969" xlink:href="#a"/>
<use x="4606.2656" y="2834.625" xlink:href="#a"/>
<use x="4606.2656" y="3188.9531" xlink:href="#a"/>
<use x="4606.2656" y="3543.2812" xlink:href="#a"/>
<use x="4606.2656" y="3897.6094" xlink:href="#a"/>
<use x="4606.2656" y="4251.9375" xlink:href="#a"/>
<use x="4606.2656" y="4606.2656" xlink:href="#a"/>
<use x="4606.2656" y="4960.5938" xlink:href="#a"/>
<use transform="matrix(1 0 0 .74523 -.030723 1401)" x="4606.2656" y="5314.9219" xlink:href="#a"/>
<use x="4960.5938" xlink:href="#a"/>
<use x="4960.5938" y="354.32809" xlink:href="#a"/>
<use x="4960.5938" y="708.65631" xlink:href="#a"/>
<use x="4960.5938" y="1062.9844" xlink:href="#a"/>
<use x="4960.5938" y="1417.3125" xlink:href="#a"/>
<use x="4960.5938" y="1771.6406" xlink:href="#a"/>
<use x="4960.5938" y="2125.9688" xlink:href="#a"/>
<use x="4960.5938" y="2480.2969" xlink:href="#a"/>
<use x="4960.5938" y="2834.625" xlink:href="#a"/>
<use x="4960.5938" y="3188.9531" xlink:href="#a"/>
<use x="4960.5938" y="3543.2812" xlink:href="#a"/>
<use x="4960.5938" y="3897.6094" xlink:href="#a"/>
<use x="4960.5938" y="4251.9375" xlink:href="#a"/>
<use x="4960.5938" y="4606.2656" xlink:href="#a"/>
<use x="4960.5938" y="4960.5938" xlink:href="#a"/>
<use transform="matrix(1 0 0 .74523 -.030723 1401)" x="4960.5938" y="5314.9219" xlink:href="#a"/>
<use x="5314.9219" xlink:href="#a"/>
<use x="5314.9219" y="354.32809" xlink:href="#a"/>
<use x="5314.9219" y="708.65631" xlink:href="#a"/>
<use x="5314.9219" y="1062.9844" xlink:href="#a"/>
<use x="5314.9219" y="1417.3125" xlink:href="#a"/>
<use x="5314.9219" y="1771.6406" xlink:href="#a"/>
<use x="5314.9219" y="2125.9688" xlink:href="#a"/>
<use x="5314.9219" y="2480.2969" xlink:href="#a"/>
<use x="5314.9219" y="2834.625" xlink:href="#a"/>
<use x="5314.9219" y="3188.9531" xlink:href="#a"/>
<use x="5314.9219" y="3543.2812" xlink:href="#a"/>
<use x="5314.9219" y="3897.6094" xlink:href="#a"/>
<use x="5314.9219" y="4251.9375" xlink:href="#a"/>
<use x="5314.9219" y="4606.2656" xlink:href="#a"/>
<use x="5314.9219" y="4960.5938" xlink:href="#a"/>
<use transform="matrix(1 0 0 .74523 -.030723 1401)" x="5314.9219" y="5314.9219" xlink:href="#a"/>
<use x="5669.25" xlink:href="#a"/>
<use x="5669.25" y="354.32809" xlink:href="#a"/>
<use x="5669.25" y="708.65631" xlink:href="#a"/>
<use x="5669.25" y="1062.9844" xlink:href="#a"/>
<use x="5669.25" y="1417.3125" xlink:href="#a"/>
<use x="5669.25" y="1771.6406" xlink:href="#a"/>
<use x="5669.25" y="2125.9688" xlink:href="#a"/>
<use x="5669.25" y="2480.2969" xlink:href="#a"/>
<use x="5669.25" y="2834.625" xlink:href="#a"/>
<use x="5669.25" y="3188.9531" xlink:href="#a"/>
<use x="5669.25" y="3543.2812" xlink:href="#a"/>
<use x="5669.25" y="3897.6094" xlink:href="#a"/>
<use x="5669.25" y="4251.9375" xlink:href="#a"/>
<use x="5669.25" y="4606.2656" xlink:href="#a"/>
<use x="5669.25" y="4960.5938" xlink:href="#a"/>
<use transform="matrix(1 0 0 .74523 -.030723 1401)" x="5669.25" y="5314.9219" xlink:href="#a"/>
<use x="6023.5781" xlink:href="#a"/>
<use x="6023.5781" y="354.32809" xlink:href="#a"/>
<use x="6023.5781" y="708.65631" xlink:href="#a"/>
<use x="6023.5781" y="1062.9844" xlink:href="#a"/>
<use x="6023.5781" y="1417.3125" xlink:href="#a"/>
<use x="6023.5781" y="1771.6406" xlink:href="#a"/>
<use x="6023.5781" y="2125.9688" xlink:href="#a"/>
<use x="6023.5781" y="2480.2969" xlink:href="#a"/>
<use x="6023.5781" y="2834.625" xlink:href="#a"/>
<use x="6023.5781" y="3188.9531" xlink:href="#a"/>
<use x="6023.5781" y="3543.2812" xlink:href="#a"/>
<use x="6023.5781" y="3897.6094" xlink:href="#a"/>
<use x="6023.5781" y="4251.9375" xlink:href="#a"/>
<use x="6023.5781" y="4606.2656" xlink:href="#a"/>
<use x="6023.5781" y="4960.5938" xlink:href="#a"/>
<use transform="matrix(1 0 0 .74523 -.030723 1401)" x="6023.5781" y="5314.9219" xlink:href="#a"/>
<use x="6377.9062" xlink:href="#a"/>
<use x="6377.9062" y="354.32809" xlink:href="#a"/>
<use x="6377.9062" y="708.65631" xlink:href="#a"/>
<use x="6377.9062" y="1062.9844" xlink:href="#a"/>
<use x="6377.9062" y="1417.3125" xlink:href="#a"/>
<use x="6377.9062" y="1771.6406" xlink:href="#a"/>
<use x="6377.9062" y="2125.9688" xlink:href="#a"/>
<use x="6377.9062" y="2480.2969" xlink:href="#a"/>
<use x="6377.9062" y="2834.625" xlink:href="#a"/>
<use x="6377.9062" y="3188.9531" xlink:href="#a"/>
<use x="6377.9062" y="3543.2812" xlink:href="#a"/>
<use x="6377.9062" y="3897.6094" xlink:href="#a"/>
<use x="6377.9062" y="4251.9375" xlink:href="#a"/>
<use x="6377.9062" y="4606.2656" xlink:href="#a"/>
<use x="6377.9062" y="4960.5938" xlink:href="#a"/>
<use transform="matrix(1 0 0 .74523 -.030723 1401)" x="6377.9062" y="5314.9219" xlink:href="#a"/>
<use x="6732.2344" xlink:href="#a"/>
<use x="6732.2344" y="354.32809" xlink:href="#a"/>
<use x="6732.2344" y="708.65631" xlink:href="#a"/>
<use x="6732.2344" y="1062.9844" xlink:href="#a"/>
<use x="6732.2344" y="1417.3125" xlink:href="#a"/>
<use x="6732.2344" y="1771.6406" xlink:href="#a"/>
<use x="6732.2344" y="2125.9688" xlink:href="#a"/>
<use x="6732.2344" y="2480.2969" xlink:href="#a"/>
<use x="6732.2344" y="2834.625" xlink:href="#a"/>
<use x="6732.2344" y="3188.9531" xlink:href="#a"/>
<use x="6732.2344" y="3543.2812" xlink:href="#a"/>
<use x="6732.2344" y="3897.6094" xlink:href="#a"/>
<use x="6732.2344" y="4251.9375" xlink:href="#a"/>
<use x="6732.2344" y="4606.2656" xlink:href="#a"/>
<use x="6732.2344" y="4960.5938" xlink:href="#a"/>
<use transform="matrix(1 0 0 .74523 -.030723 1401)" x="6732.2344" y="5314.9219" xlink:href="#a"/>
<use x="7086.5625" xlink:href="#a"/>
<use x="7086.5625" y="354.32809" xlink:href="#a"/>
<use x="7086.5625" y="708.65631" xlink:href="#a"/>
<use x="7086.5625" y="1062.9844" xlink:href="#a"/>
<use x="7086.5625" y="1417.3125" xlink:href="#a"/>
<use x="7086.5625" y="1771.6406" xlink:href="#a"/>
<use x="7086.5625" y="2125.9688" xlink:href="#a"/>
<use x="7086.5625" y="2480.2969" xlink:href="#a"/>
<use x="7086.5625" y="2834.625" xlink:href="#a"/>
<use x="7086.5625" y="3188.9531" xlink:href="#a"/>
<use x="7086.5625" y="3543.2812" xlink:href="#a"/>
<use x="7086.5625" y="3897.6094" xlink:href="#a"/>
<use x="7086.5625" y="4251.9375" xlink:href="#a"/>
<use x="7086.5625" y="4606.2656" xlink:href="#a"/>
<use x="7086.5625" y="4960.5938" xlink:href="#a"/>
<use transform="matrix(1 0 0 .74523 -.030723 1401)" x="7086.5625" y="5314.9219" xlink:href="#a"/>
<use x="7440.8906" xlink:href="#a"/>
<use x="7440.8906" y="354.32809" xlink:href="#a"/>
<use x="7440.8906" y="708.65631" xlink:href="#a"/>
<use x="7440.8906" y="1062.9844" xlink:href="#a"/>
<use x="7440.8906" y="1417.3125" xlink:href="#a"/>
<use x="7440.8906" y="1771.6406" xlink:href="#a"/>
<use x="7440.8906" y="2125.9688" xlink:href="#a"/>
<use x="7440.8906" y="2480.2969" xlink:href="#a"/>
<use x="7440.8906" y="2834.625" xlink:href="#a"/>
<use x="7440.8906" y="3188.9531" xlink:href="#a"/>
<use x="7440.8906" y="3543.2812" xlink:href="#a"/>
<use x="7440.8906" y="3897.6094" xlink:href="#a"/>
<use x="7440.8906" y="4251.9375" xlink:href="#a"/>
<use x="7440.8906" y="4606.2656" xlink:href="#a"/>
<use x="7440.8906" y="4960.5938" xlink:href="#a"/>
<use transform="matrix(1 0 0 .74523 -.030723 1401)" x="7440.8906" y="5314.9219" xlink:href="#a"/>
<use transform="matrix(.46273 0 0 1 4310.1 -.10643)" x="7795.2188" xlink:href="#a"/>
<use transform="matrix(.46273 0 0 1 4310.1 -.10643)" x="7795.2188" y="354.32809" xlink:href="#a"/>
<use transform="matrix(.46273 0 0 1 4310.1 -.10643)" x="7795.2188" y="708.65631" xlink:href="#a"/>
<use transform="matrix(.46273 0 0 1 4310.1 -.10643)" x="7795.2188" y="1062.9844" xlink:href="#a"/>
<use transform="matrix(.46273 0 0 1 4310.1 -.10643)" x="7795.2188" y="1417.3125" xlink:href="#a"/>
<use transform="matrix(.46273 0 0 1 4310.1 -.10643)" x="7795.2188" y="1771.6406" xlink:href="#a"/>
<use transform="matrix(.46273 0 0 1 4310.1 -.10643)" x="7795.2188" y="2125.9688" xlink:href="#a"/>
<use transform="matrix(.46273 0 0 1 4310.1 -.10643)" x="7795.2188" y="2480.2969" xlink:href="#a"/>
<use transform="matrix(.46273 0 0 1 4310.1 -.10643)" x="7795.2188" y="2834.625" xlink:href="#a"/>
<use transform="matrix(.46273 0 0 1 4310.1 -.10643)" x="7795.2188" y="3188.9531" xlink:href="#a"/>
<use transform="matrix(.46273 0 0 1 4310.1 -.10643)" x="7795.2188" y="3543.2812" xlink:href="#a"/>
<use transform="matrix(.46273 0 0 1 4310.1 -.10643)" x="7795.2188" y="3897.6094" xlink:href="#a"/>
<use transform="matrix(.46273 0 0 1 4310.1 -.10643)" x="7795.2188" y="4251.9375" xlink:href="#a"/>
<use transform="matrix(.46273 0 0 1 4310.1 -.10643)" x="7795.2188" y="4606.2656" xlink:href="#a"/>
<use transform="matrix(.46273 0 0 1 4310.1 -.10643)" x="7795.2188" y="4960.5938" xlink:href="#a"/>
<use transform="matrix(.46273 0 0 .74526 4310.1 1400.9)" x="7795.2188" y="5314.9219" xlink:href="#a"/>
</g>
</g>
<g transform="matrix(1 0 0 -1 -151.57 4880.2)" clip-rule="evenodd" fill-rule="evenodd" stroke-linejoin="bevel" stroke-miterlimit="16">
<rect x="212.61" y="170.08" width="7993.7" height="5612.6" fill="none" stroke="#000" stroke-linejoin="miter" stroke-width="40"/>
<path d="m226.78 5782.7h7993.7" fill="none" stroke="#fff" stroke-dasharray="354.344" stroke-linejoin="miter" stroke-width="30"/>
<text transform="scale(1,-1)" x="7127.9414" y="-5770.7554" fill="#000000" font-family="'Roboto Black'" font-size="35px" font-style="italic" font-weight="900" stroke="#000000" stroke-width="1.4173" xml:space="preserve"><tspan x="7127.9414" y="-5770.7554" fill="#ffffff" font-family="'Times New Roman'" font-size="35px" font-style="normal" font-weight="bold" stroke="none" stroke-width="0">T</tspan></text>
<text transform="scale(1,-1)" x="2871.3667" y="-5770.7632" fill="#000000" font-family="'Roboto Black'" font-size="35px" font-style="italic" font-weight="900" stroke="#000000" stroke-width="1.4173" xml:space="preserve"><tspan x="2871.3667" y="-5770.7632" fill="#ffffff" font-family="'Times New Roman'" font-size="35px" font-style="normal" font-weight="bold" stroke="none" stroke-width="0">H</tspan></text>
<text transform="scale(1,-1)" x="2162.2944" y="-5771.2773" fill="#000000" font-family="'Roboto Black'" font-size="35px" font-style="italic" font-weight="900" stroke="#000000" stroke-width="1.4173" xml:space="preserve"><tspan x="2162.2944" y="-5771.2773" fill="#ffffff" font-family="'Times New Roman'" font-size="35px" font-style="normal" font-weight="bold" stroke="none" stroke-width="0">F</tspan></text>
<text transform="scale(1,-1)" x="1453.7458" y="-5771.1646" fill="#000000" font-family="'Roboto Black'" font-size="35px" font-style="italic" font-weight="900" stroke="#000000" stroke-width="1.4173" xml:space="preserve"><tspan x="1453.7458" y="-5771.1646" fill="#ffffff" font-family="'Times New Roman'" font-size="35px" font-style="normal" font-weight="bold" stroke="none" stroke-width="0">D</tspan></text>
<text transform="scale(1,-1)" x="745.69019" y="-5771.0205" fill="#000000" font-family="'Roboto Black'" font-size="35px" font-style="italic" font-weight="900" stroke="#000000" stroke-width="1.4173" xml:space="preserve"><tspan x="745.69019" y="-5771.0205" fill="#ffffff" font-family="'Times New Roman'" font-size="35px" font-style="normal" font-weight="bold" stroke="none" stroke-width="0">B</tspan></text>
<text transform="scale(1,-1)" x="4998.0708" y="-5769.9932" fill="#000000" font-family="'Roboto Black'" font-size="35px" font-style="italic" font-weight="900" stroke="#000000" stroke-width="1.4173" xml:space="preserve"><tspan x="4998.0708" y="-5769.9932" fill="#ffffff" font-family="'Times New Roman'" font-size="35px" font-style="normal" font-weight="bold" stroke="none" stroke-width="0">N</tspan></text>
<text transform="scale(1,-1)" x="5707.6611" y="-5771.1646" fill="#000000" font-family="'Roboto Black'" font-size="35px" font-style="italic" font-weight="900" stroke="#000000" stroke-width="1.4173" xml:space="preserve"><tspan x="5707.6611" y="-5771.1646" fill="#ffffff" font-family="'Times New Roman'" font-size="35px" font-style="normal" font-weight="bold" stroke="none" stroke-width="0">P</tspan></text>
<text transform="scale(1,-1)" x="6424.7197" y="-5771.7832" fill="#000000" font-family="'Roboto Black'" font-size="35px" font-style="italic" font-weight="900" stroke="#000000" stroke-width="1.4173" xml:space="preserve"><tspan x="6424.7197" y="-5771.7832" fill="#ffffff" font-family="'Times New Roman'" font-size="35px" font-style="normal" font-weight="bold" stroke="none" stroke-width="0">R</tspan></text>
<path d="m8206.3 184.3v5634" fill="none" stroke="#fff" stroke-dasharray="354.344" stroke-linejoin="miter" stroke-width="30"/>
<path d="m226.78 170.08h7994.5" fill="none" stroke="#fff" stroke-dasharray="354.328" stroke-linejoin="miter" stroke-width="30"/>
<path d="m212.61 184.25v5612.6" fill="none" stroke="#fff" stroke-dasharray="354.344" stroke-linejoin="miter" stroke-width="30"/>
<rect x="195.64" y="153.45" width="34.398" height="34.297" stroke="#000" stroke-dasharray="354.328" stroke-linejoin="miter" stroke-width="5"/>
<rect x="196.32" y="5764.9" width="33.82" height="34.727" stroke="#000" stroke-dasharray="354.328" stroke-linejoin="miter" stroke-width="5"/>
<path d="m408.52 159.99c0.6407-1.3984 0.4375-1.6328-0.7578-1.7969v-1.1953h6.1172v1.1953c-0.7969 0.1641-1.1953 0.5625-1.7578 1.7969l-10.484 23.688h-2.5547l-9.9609-23.688c-0.3594-0.7578-0.6406-1.5938-1.5625-1.7969v-1.1953h5.3984v1.1953c-1.4375 0.2031-1.4375 0.7578-0.914 2.0391l3.1172 7.5234h9.7968zm-4.6406 10.281h-7.6406l3.6797 8.961z"/>
<path d="m755.44 157c3.4375 0 6.2813 1.1172 7.8359 2.6797 3.5625 3.5547 2.3594 10.195-2.8359 12.477v0.0781c3.0391 1.3203 4.0391 6.5625 1.5156 9.0781-1.5937 1.6016-4.1172 2.3672-7.7578 2.3672h-11.398v-1.2031c1.2422 0 1.4765-0.4844 1.4765-1.7969v-20.688c0-1.2734-0.2343-1.6797-1.4765-1.7969v-1.1953zm4.875 4.2344c-1.2344-1.2422-3.1562-1.7188-5.3984-1.7188h-7.1172v11.164h6.4375c2.3203 0 4.2812-0.2422 5.8047-1.7656 2.1953-2.1953 2.1562-5.7969 0.2734-7.6797zm-1.2734 18.602c1.3203-1.3203 1.3593-3.8828 0-5.2421-0.9219-0.9141-2.2422-1.3985-4.125-1.3985h-7.1172v7.961h6.3984c2.6016 0 4.0391-0.5235 4.8438-1.3204z" fill="#fff"/>
<path d="m8110 159.8 6.1641 8.9219 6.2031-8.7657c0.9531-1.3203 0.7578-1.4375-0.6406-1.7578v-1.1953h7.2734v1.1953c-0.9531 0.2031-1.5547 0.6406-2.5938 2.1172l-7.7656 11.125 6.3594 9.0781c1.0469 1.5235 1.4453 1.7969 2.6875 1.961v1.2031h-6.6406v-1.2031c1.3984-0.1172 1.6406-0.5625 1.1562-1.2813l-5.2031-7.4765-5.1953 7.3984c-0.6797 0.9609-0.7188 1.1953 0.6015 1.3594v1.2031h-7.0859v-1.2031c1.0469-0.0782 1.4063-0.3985 2.4844-1.961l6.7187-9.5234-7.7578-11.039c-0.7656-1.1172-1.4453-1.5547-2.4844-1.7578v-1.1953h6.6016v1.1953c-1.3984 0.2031-1.5625 0.6406-0.8828 1.6016z"/>
<path d="m7493 180.68-6.7266-18.125-6.7969 18.398c-0.3984 1.086-0.5234 1.4453 1.0391 1.5235v1.2031h-6.4766v-1.2031c0.961-0.2032 1.1172-0.3594 1.7578-2.1172l8.7969-23.359h2.2031l9.0782 23.953c0.4843 1.2422 0.7187 1.4844 1.6015 1.5235v1.2031h-5.5625v-1.2031c1.3594-0.1172 1.5235-0.6797 1.086-1.7969z"/>
<path d="m7847.2 182.48v1.2031h-6.2032v-1.2031c1.0391-0.2422 1.4063-0.5235 1.6797-1.4844l1.7266-5.3594-4.5625-13.555-6.4844 19.195c-0.3203 0.9219-0.2734 1.125 1.0469 1.2032v1.2031h-6.2031v-1.2031c0.9218-0.1641 1.3984-0.5235 1.7187-1.4844l8.1641-23.992h2.6797l4.8359 14.633 4.8828-14.633h2.6797l8.1172 23.992c0.3594 1.0859 0.6015 1.2812 1.4453 1.4844v1.2031h-5.2813v-1.2031c1.3594-0.1172 1.4766-0.7969 1.0782-1.961l-6.2032-18.438-6.039 18.914c-0.3594 1.0859-0.3594 1.4062 0.9219 1.4844z" fill="#fff"/>
<path d="m6773.8 158.2v-1.1953h6.4766v1.1953c-1.3203 0.1172-1.4766 0.5235-1.4766 1.7969v21.164h6.1172c1.6797 0 2.0391-0.3204 2.1641-1.8438h1.2422v4.3672h-22.766v-4.3672h1.2031c0.3594 1.6797 0.5625 1.8438 2.4375 1.8438h6.0781v-21.164c0-1.2734-0.2734-1.7188-1.4766-1.7969z"/>
<path d="m7130.6 182.48v1.2031h-6.6797v-1.2031c1.8828-0.2813 1.6016-0.2032 0.3203-2.7578-1.6406-3.2813-6.914-13.562-0.7578-19.727 2.3985-2.3984 5.6797-2.9922 8.3985-2.9922h11.719v1.1953c-1.1172 0.0391-1.4765 0.2422-1.4765 1.7578v20.727c0 1.1953 0.1171 1.6797 1.4765 1.7969v1.2031h-6.4765v-1.2031c1.3593-0.0782 1.4765-0.5235 1.4765-1.7969v-21.164h-5.3203c-3.1562 0-4.875 0.5625-6.4766 2.1641-4.7187 4.7187-0.9609 14.594 0.4375 17.398 1.0391 2.0782 2.0391 3.0782 3.3594 3.3985z" fill="#fff"/>
<path d="m6073.9 173.27c-1.2344-1.2343-3.1953-1.7578-6.1953-1.7578h-4.7266v9.6407h6.3203c2.0469 0 3.6016-0.5235 4.6016-1.5235 1.8047-1.7969 1.3984-4.9531 0-6.3594zm-3.7578-4.2343c2.5234 0.2734 4.6796 0.9531 6.2812 2.5547 2.4766 2.4843 2.5547 7.2812 0.078 9.7656-1.7578 1.7578-4.2812 2.3203-6.6797 2.3203h-11.844v-1.2031c1.2812 0 1.4844-0.5235 1.4844-1.7969v-20.688c0-1.2734-0.2422-1.6797-1.4844-1.7969v-1.1953h6.4844v1.1953c-1.2422 0.1172-1.4844 0.4844-1.4844 1.7969v9h3.2812l8.8439-11.992h4.5156v1.1953c-1.039 0.1641-1.5937 0.4844-2.3984 1.5235z"/>
<path d="m6412.4 163.08c2.875-9.4843 21.516-8.6406 21.516 1.4375 0 9.5235-17.156 7.2032-17.156 13.039 0 5.6797 12.32 5 12.32 1.3203 0-0.3203-0.086-0.5625-0.4453-1.2812l1.0469-0.6407 2.9141 3.4453c-6.4766 6.5547-19.039 4.0391-19.039-3.3593 0-9.2422 17.078-6.1641 17.078-13.164 0-7.3203-14.68-5.3984-14.68-1.1562 0 0.7578 0.6016 1.1953 1.086 1.6796l-0.7266 1.0391z" fill="#fff"/>
<path d="m5354.9 165.12c5.1641 1.5156 9.8047 3.6016 12.438 6.2422 3.3672 3.3594 2.9609 7.4765 0.6016 9.8359-1.5157 1.5235-4.1563 2.4844-7.875 2.4844h-10.164v-1.2031c1.2031-0.0782 1.4844-0.4844 1.4844-1.7969v-20.688c0-1.2734-0.2422-1.6797-1.4844-1.7969v-1.1953h6.4844v1.1953c-1.2422 0.1172-1.4844 0.4844-1.4844 1.7969zm0 2.6406v13.398h4.6016c2.4765 0 4.3984-0.4766 5.5625-1.6407 1.5547-1.5625 1.6406-4.6015-0.7266-6.9609-2.3594-2.3594-6.7187-3.8359-9.4375-4.7969z"/>
<path d="m5727.7 160.44-0.3203 0.2422c4.4375 4.6328 5.3594 14-0.2813 19.633-5.2422 5.2422-14.359 5.125-19.484 0-5.7188-5.7187-4.7579-15.117 0.086-19.953 4.875-4.961 12.758-4.8438 17.438-1.6016l0.5156-0.4453c2.5625-2.2344 5.3203-2.7578 6.9219-2.0391v3.8829h-1.2422c-0.2344-1.3985-1.4375-1.3985-3.6328 0.2812zm-3.0859 2.7188c-4.5547 4.1171-9.2344 3.6406-11.875 0.1171l1.2343-1.4375c2.4063 2.1563 5.4453 2.2813 8.6797-0.8437l0.2813-0.2344c-2.875-2.2031-8.7969-2.4453-12.32 1.0781-4.0782 4.0782-4 13.242 0 17.242 3.3203 3.3203 9.8828 3.3985 13.445-0.164 3.6797-3.6797 4.1953-11.875 0.9531-16.117z" fill="#fff"/>
<path d="m4665.4 182.48v1.2031h-5.6016v-1.2031c1.2422-0.1172 1.4375-0.5235 1.4375-1.7969v-10.086l-15 13.086h-5.039v-1.2031c1.2422-0.0782 1.4844-0.6016 1.4844-1.7969v-20.641c0-1.3203-0.2422-1.6016-1.4844-1.8438v-1.1953h5.6015v1.1953c-1.2421 0.2422-1.4765 0.4844-1.4765 1.8438v19.797l15.914-13.922v-5.875c0-1.2422-0.1953-1.6016-1.4375-1.8438v-1.1953h5.6016v1.1953c-1.2031 0.0781-1.5234 0.6016-1.5234 1.8438v20.641c0 1.3125 0.2031 1.6797 1.5234 1.7969z"/>
<path d="m5015.1 161.68c-3.4843-3.4844-9.9609-3.3672-13.484 0.1562-4.0782 4.0782-4 13.242 0 17.242 3.3203 3.3203 9.8828 3.3985 13.445-0.164 3.6797-3.6797 4.5547-12.719 0.039-17.234zm3 18.633c-5.2422 5.2422-14.359 5.125-19.484 0-5.7188-5.7187-4.7579-15.117 0.086-19.953 4.875-4.961 13.953-5.4453 19.398 0 4.7969 4.7969 5.6407 14.32 0 19.953z" fill="#fff"/>
<path d="m3938.4 182.48v1.2031h-6.4844v-1.2031c1.3203-0.1641 1.4844-0.6016 1.4844-1.7969v-20.688c0-1.2734-0.2422-1.6797-1.4844-1.7969v-1.1953h19.406v4.7578h-1.2422c-0.4844-1.7656-1.1641-2.2422-3.0391-2.2422h-10.125v21.164c0 1.1953 0.2422 1.6797 1.4844 1.7969z"/>
<path d="m4309.9 181.48c-0.1562 0.7578 0.3203 0.9218 1.1172 1v1.2031h-4.7969l-5.8359-15.164-6.2813 15.164h-4.7187v-1.2031c0.875-0.1641 1.2344-0.2422 1.039-1.2813l-3.8437-21.438c-0.1563-0.9219-0.4766-1.2422-1.3203-1.5625v-1.1953h5.164v1.1953c-0.8046 0.1172-1.2031 0.3203-1.039 1.3203l3.3203 19.602 6.5937-15.844h1.5235l6.1953 15.844 3.6016-19.602c0.2031-1.0781-0.078-1.1172-1.0391-1.3203v-1.1953h5.8437v1.1953c-0.8046 0.2422-1.2031 0.6016-1.3593 1.3203z" fill="#fff"/>
<path d="m3238.2 159.2c1.8047 1.7969 2.3984 4.0391 2.3984 7.7578v13.727c0 1.1953 0.2422 1.6328 1.4844 1.7969v1.2031h-6.4844v-1.2031c1.2031-0.1172 1.4844-0.6016 1.4844-1.7969v-14.727c0-2.4375-0.5625-4.2343-1.7578-5.4375-2.8828-2.8828-9.125-1.1562-9.125 2.2813 0 0.9219 0.3984 1.039 0.8047 1.4375l-0.8047 1-3.7188-2.836c3.3985-7.5234 11.758-7.164 15.719-3.2031z"/>
<path d="m3593.4 180.91-10.281-8.7188v8.4844c0 1.1953 0.1563 1.6797 1.4766 1.7969v1.2031h-6.4766v-1.2031c1.3203-0.0782 1.4766-0.6016 1.4766-1.7969v-20.641c0-1.3203-0.2422-1.6016-1.4766-1.8438v-1.1953h6.4766v1.1953c-1.2422 0.2422-1.4766 0.4844-1.4766 1.8438v8.8359l5.1172 4.3203 8.0781-14.078c0.4454-0.7578-0.1953-0.8438-1.1562-0.9219v-1.1953h6.7187v1.1953c-1.1171 0.3203-1.3203 0.4844-1.9609 1.5625l-8.9609 15.758 6.3984 5.3985c1.3203 1.125 2.2422 1.5625 3.3203 1.5625v1.2031h-7.5937v-1.2031c1.875 0 1.4375-0.6407 0.3203-1.5625z" fill="#fff"/>
<path d="m2538.7 156.95v1.125c-0.8438 0.1172-0.9219 0.4766-0.9219 1.3203v10.281c0 1.1172 0.2344 1.3594 1.3985 1.5937v1.2032h-6.2813v-1.2032c1.0781-0.1562 1.3594-0.4765 1.3594-1.5937v-10.562c-3.836-0.2813-8.5547 0.0781-12.242 3.7578-4.7188 4.7188-4.3984 12.203-0.7188 15.883 5.086 5.0781 13.766 2.3594 13.766-0.7656 0-0.2734-0.2032-0.5938-0.5625-0.9531l0.9218-0.7266 3.2813 3.1641c-3.9609 5.7187-14.844 6.5156-20.445 0.9218-4.961-4.9609-4.961-13.484 0.5234-18.961 6.4766-6.4844 16.477-5 19.922-4.4844z"/>
<path d="m2891.8 158.2c-1.2812 0.0781-1.4844 0.6016-1.4844 1.8438v20.641c0 1.1953 0.1641 1.6797 1.4844 1.7969v1.2031h-6.4844v-1.2031c1.2032-0.1172 1.4454-0.6016 1.4454-1.7969v-7.3203h-12.562v7.3203c0 1.1953 0.1562 1.6797 1.4765 1.7969v1.2031h-6.4765v-1.2031c1.0781-0.1172 1.4765-0.5625 1.4765-1.7969v-20.641c0-1.3203-0.2344-1.6016-1.4765-1.8438v-1.1953h6.4765v1.1953c-1.2344 0.2422-1.4765 0.4844-1.4765 1.8438v10.797h12.562v-10.797c0-1.2422-0.2032-1.6016-1.4454-1.8438v-1.1953h6.4844z" fill="#fff"/>
<path d="m1806.1 182.48c1.3203 0 1.4766-0.5235 1.4766-1.7969v-20.688c0-1.2734-0.2422-1.6797-1.4766-1.7969v-1.1953h23.156v4.7969h-1.2422c-0.2734-1.7578-1.0781-2.2813-3.5547-2.2813h-13.359v11.32h9.5547c1.2813 0 1.7656-0.3203 2-1.3203h1.2422v5.1172h-1.2422c-0.3203-1.0781-0.875-1.2734-2.5547-1.2734h-9v7.7969h13.32c1.3204 0 1.9141-0.4375 2.3594-1.8829h1.2344v4.4063h-21.914z"/>
<path d="m2160.8 182.48c1.2422 0 1.4375-0.5235 1.4375-1.7969v-20.688c0-1.2734-0.1953-1.6797-1.4375-1.7969v-1.1953h6.4766v1.1953c-1.1562 0-1.5156 0.6406-1.5156 1.7969v10.844h9.1172c1.2422 0 1.6797-0.3593 1.8047-1.3593h1.2343v5.2812h-1.2343c-0.3204-1.164-0.6797-1.3984-2.4063-1.3984h-8.5156v7.7969h12.078c2.1641 0 3.1172-0.7188 3.2813-2.4766h1.2421v5h-21.562z" fill="#fff"/>
<path d="m1119.7 156.95v4.6407h-1.2422c-0.2813-3.6016-8.3203-3.4375-13 1.2421-5.3203 5.3204-4.5625 12.641-1.1172 16.078 4.2734 4.2812 12.875 2.8047 12.875-0.3203 0-0.3594-0.1172-0.6407-0.3594-1l0.8828-0.6407 3.3985 3.2813c-5.7188 5.5234-14.961 5.039-19.961 0.039-5.2422-5.2343-4.1562-13.555 0.8828-18.594 5.2813-5.2813 12.875-5.9609 17.641-4.7266z"/>
<path d="m1472.1 179.12c-2.9219 2.9219-7 4.5625-11.844 4.5625h-8.2812v-1.2031c1.2812 0 1.4844-0.5235 1.4844-1.7969v-20.688c0-1.2734-0.2422-1.6797-1.4844-1.7969v-1.1953h11.844c4.3204 0 7.6407 1.4766 9.6797 3.5156 4.6797 4.6797 3.8438 13.359-1.3984 18.602zm-1.9219-17.164c-1.8359-1.8359-4.4765-2.4375-7.0781-2.4375h-6.125v21.758c3.9609 0.4454 8.9609-0.3593 12.242-3.6406 4.6015-4.5937 4.4844-12.156 0.9609-15.68z" fill="#fff"/>
<text transform="scale(1,-1)" x="4289.7686" y="-5771.0205" fill="#000000" font-family="'Roboto Black'" font-size="35px" font-style="italic" font-weight="900" stroke="#000000" stroke-width="1.4173" xml:space="preserve"><tspan x="4289.7686" y="-5771.0205" fill="#ffffff" font-family="'Times New Roman'" font-size="35px" font-style="normal" font-weight="bold" stroke="none" stroke-width="0">L</tspan></text>
<text transform="scale(1,-1)" x="8110.2715" y="-5771.0815" fill="#000000" font-family="'Roboto Black'" font-size="35px" font-style="italic" font-weight="900" stroke="#000000" stroke-width="1.4173" xml:space="preserve"><tspan x="8110.2715" y="-5771.0815" font-family="'Times New Roman'" font-size="35px" font-style="normal" font-weight="bold" stroke-width="1.4173">W</tspan></text>
<text transform="scale(1,-1)" x="7478.9199" y="-5771.2192" fill="#000000" font-family="'Roboto Black'" font-size="35px" font-style="italic" font-weight="900" stroke="#000000" stroke-width="1.4173" xml:space="preserve"><tspan x="7478.9199" y="-5771.2192" font-family="'Times New Roman'" font-size="35px" font-style="normal" font-weight="bold" stroke-width="1.4173">U</tspan></text>
<text transform="scale(1,-1)" x="6770.9917" y="-5770.8994" fill="#000000" font-family="'Roboto Black'" font-size="35px" font-style="italic" font-weight="900" stroke="#000000" stroke-width="1.4173" xml:space="preserve"><tspan x="6770.9917" y="-5770.8994" font-family="'Times New Roman'" font-size="35px" font-style="normal" font-weight="bold" stroke-width="1.4173">S</tspan></text>
<text transform="scale(1,-1)" x="6061.6548" y="-5771.3511" fill="#000000" font-family="'Roboto Black'" font-size="35px" font-style="italic" font-weight="900" stroke="#000000" stroke-width="1.4173" xml:space="preserve"><tspan x="6061.6548" y="-5771.3511" font-family="'Times New Roman'" font-size="35px" font-style="normal" font-weight="bold" stroke-width="1.4173">Q</tspan></text>
<text transform="scale(1,-1)" x="5351.415" y="-5770.9258" fill="#000000" font-family="'Roboto Black'" font-size="35px" font-style="italic" font-weight="900" stroke="#000000" stroke-width="1.4173" xml:space="preserve"><tspan x="5351.415" y="-5770.9258" font-family="'Times New Roman'" font-size="35px" font-style="normal" font-weight="bold" stroke-width="1.4173">O</tspan></text>
<text transform="scale(1,-1)" x="4647.1631" y="-5770.6611" fill="#000000" font-family="'Roboto Black'" font-size="35px" font-style="italic" font-weight="900" stroke="#000000" stroke-width="1.4173" xml:space="preserve"><tspan x="4647.1631" y="-5770.6611" font-family="'Times New Roman'" font-size="35px" font-style="normal" font-weight="bold" stroke-width="1.4173">M</tspan></text>
<text transform="scale(1,-1)" x="3580.7363" y="-5770.7661" fill="#000000" font-family="'Roboto Black'" font-size="35px" font-style="italic" font-weight="900" stroke="#000000" stroke-width="1.4173" xml:space="preserve"><tspan x="3580.7363" y="-5770.7661" fill="#ffffff" font-family="'Times New Roman'" font-size="35px" font-style="normal" font-weight="bold" stroke="none" stroke-width="0">J</tspan></text>
<path d="m202.23 351.23h19.844c2.5547 0 2.6407-1 2.7188-3.2813h1.2031v9.4844h-1.2031c-0.0781-2 0.2422-2.9219-2.4844-2.9219h-23v-1.9218c1.5234-1.7188 2.3203-3.5157 2.9219-6.5157h1.2812c-0.1562 1.9141-0.6015 3.7188-1.2812 5.1563z"/>
<path d="m206.8 711.36c8.1172 0 7.9219-14.562 19.203-14.562v18.719h-4.6016v-1.2422c1.3985-0.3203 1.836-1 1.836-2.914v-11.281c-7.1172 2.1172-7.0391 14.961-16.641 14.961-7.0391 0-10.195-9.6797-5.7188-17.406h4.5234v1.2813c-6.164 2.164-5.2031 12.445 1.3985 12.445z" fill="#fff"/>
<g>
<path d="m202.23 5304.2h19.844c2.5547 0 2.6407-1 2.7188-3.2813h1.2031v9.4844h-1.2031c-0.0781-2 0.2422-2.9219-2.4844-2.9219h-23v-1.9218c1.5234-1.7188 2.3203-3.5157 2.9219-6.5157h1.2812c-0.1562 1.9141-0.6015 3.7188-1.2812 5.1563z"/>
<path d="m208.84 5322.1-6.7578 0.2813v10.914l-2.7656 1.4844v-14.961l13.164-0.5235 0.6797 2.125c-4.7969 2.7969-3.7969 8.2813-2 10.078 2.3203 2.3203 6.8828 2.1172 9.6796-0.6797 3.5235-3.5235 3.4375-9.5235 2.3594-10.602-0.4765-0.4765-1.039-0.5625-1.5625-0.6797v-1.2422h4.7266c0.7187 5.2813-0.3203 11.562-4.086 15.32-3.3984 3.3984-9.1953 4.3984-12.961 0.6406-3.1953-3.1563-3.0391-8.875-0.4766-12.156z"/>
</g>
<g fill="#fff">
<path d="m202.23 5659.2h19.844c2.5547 0 2.6407-1 2.7188-3.2813h1.2031v9.4844h-1.2031c-0.0781-2 0.2422-2.9219-2.4844-2.9219h-23v-1.9218c1.5234-1.7188 2.3203-3.5157 2.9219-6.5157h1.2812c-0.1562 1.9141-0.6015 3.7188-1.2812 5.1563z"/>
<path d="m211.91 5676c-2.836 0.086-6.4375 1.125-8.6016 3.2812-3.0781 3.086-2.5937 8.8438 0.2813 9.2422v1.2422h-3.875c-1.4454-3.7187-1.5625-9.164 2.1953-12.922 5.6406-5.6406 17.766-5.3203 22.398-0.6796 3.5234 3.5234 3.0469 9.5234-0.1953 12.758-3.1641 3.164-9.8828 3.6406-13.523 0-3.875-3.875-2.7969-10.438 1.3203-12.922zm0.5234 10.367c2.6406 2.6328 8.0781 2.1172 10.195-0.047 1.8438-1.8359 2.6016-5.3984-0.1172-8.1172-2.5156-2.5156-7.5625-2.3203-10 0.1172-2.2031 2.2031-2.2422 5.8828-0.0781 8.0469z"/>
</g>
<g>
<path d="m202.23 4596.2h19.844c2.5547 0 2.6407-1 2.7188-3.2813h1.2031v9.4844h-1.2031c-0.0781-2 0.2422-2.9219-2.4844-2.9219h-23v-1.9218c1.5234-1.7188 2.3203-3.5157 2.9219-6.5157h1.2812c-0.1562 1.9141-0.6015 3.7188-1.2812 5.1563z"/>
<path d="m223 4625.9c-4.2031 4.2031-11.242 3.1641-12.883-3.2422h-0.0781c-1.6407 4.7266-6.3594 5.4844-8.9219 2.9219-3.2031-3.1953-2.8047-9.9609-0.6406-14.359h3.8359v1.2422c-4.0391 1.7188-3.7187 8.1563-1.7969 10.078 1.3985 1.3985 3.6407 1.1641 4.961-0.1562 1.2422-1.2422 1.6406-3.6016 1.7187-6.125h2.4844c0.1562 4.125 0.6797 5.9609 1.875 7.164 1.8047 1.7969 6 1.5938 8.2812-0.6796 2.7188-2.7266 3.7579-10.203-0.039-11.68v-1.2422h4.2031c1.7188 5.3984 0.7969 12.281-3 16.078z"/>
</g>
<g fill="#fff">
<path d="m202.23 4950.2h19.844c2.5547 0 2.6407-1 2.7188-3.2813h1.2031v9.4844h-1.2031c-0.0781-2 0.2422-2.9219-2.4844-2.9219h-23v-1.9218c1.5234-1.7188 2.3203-3.5157 2.9219-6.5157h1.2812c-0.1562 1.9141-0.6015 3.7188-1.2812 5.1563z"/>
<path d="m224.8 4980.3c-0.0391-1.3203-0.3203-1.5547-1.7969-1.5547h-3.0859v3.4766h-2.7578v-3.4766h-18.078v-2.6015l18.078-13.438h2.7578v12.758h3.0859c1.3984 0 1.6328-0.2032 1.7969-1.5235h1.2031v6.3594zm-7.6406-4.8359v-9.7578l-13.242 9.7578z"/>
</g>
<g>
<path d="m202.23 3887.2h19.844c2.5547 0 2.6407-1 2.7188-3.2813h1.2031v9.4844h-1.2031c-0.0781-2 0.2422-2.9219-2.4844-2.9219h-23v-1.9218c1.5234-1.7188 2.3203-3.5157 2.9219-6.5157h1.2812c-0.1562 1.9141-0.6015 3.7188-1.2812 5.1563z"/>
<path d="m202.23 3909.2h19.844c2.5547 0 2.6407-1 2.7188-3.2813h1.2031v9.4844h-1.2031c-0.0781-2 0.2422-2.9219-2.4844-2.9219h-23v-1.9218c1.5234-1.7188 2.3203-3.5157 2.9219-6.5157h1.2812c-0.1562 1.9141-0.6015 3.7188-1.2812 5.1563z"/>
</g>
<g fill="#fff">
<path d="m202.23 4241.2h19.844c2.5547 0 2.6407-1 2.7188-3.2813h1.2031v9.4844h-1.2031c-0.0781-2 0.2422-2.9219-2.4844-2.9219h-23v-1.9218c1.5234-1.7188 2.3203-3.5157 2.9219-6.5157h1.2812c-0.1562 1.9141-0.6015 3.7188-1.2812 5.1563z"/>
<path d="m206.8 4269.4c8.1172 0 7.9219-14.562 19.203-14.562v18.719h-4.6016v-1.2422c1.3985-0.3203 1.836-1 1.836-2.914v-11.281c-7.1172 2.1172-7.0391 14.961-16.641 14.961-7.0391 0-10.195-9.6797-5.7188-17.406h4.5234v1.2813c-6.164 2.164-5.2031 12.445 1.3985 12.445z"/>
</g>
<path d="m213.68 3193c2.8359-0.086 6.1953-1.2032 8.2344-3.2422 3.3984-3.3985 2.6015-9.2422-0.3203-9.5235v-1.2343h3.9609c1.3984 3.9531 1.8828 9.1562-2.1953 13.234-5.6016 5.6407-17.562 5.3594-22.164 0.7188-3.4765-3.4766-3-9.4766 0.2031-12.68 3.1563-3.1562 9.7969-3.6328 13.398 0 3.8359 3.8438 2.9609 10.281-1.1172 12.727zm-0.7266-10.203c-2.5937-2.6015-8-2.0781-10.078 0.039-1.8359 1.8438-2.5625 5.3984 0.125 8.1172 2.4766 2.4844 7.4766 2.2812 9.875-0.1172 2.2031-2.1953 2.2422-5.8828 0.0781-8.0391z"/>
<g fill="#fff">
<path d="m202.23 3533.2h19.844c2.5547 0 2.6407-1 2.7188-3.2813h1.2031v9.4844h-1.2031c-0.0781-2 0.2422-2.9219-2.4844-2.9219h-23v-1.9218c1.5234-1.7188 2.3203-3.5157 2.9219-6.5157h1.2812c-0.1562 1.9141-0.6015 3.7188-1.2812 5.1563z"/>
<path d="m224.16 3561.6c-4.8829 4.8828-17.719 5.2421-22.883 0.086-3.2343-3.2422-3.2734-8.3203-0.2343-11.367 5.1562-5.1562 18.359-4.875 23.234-0.078 3.2422 3.2422 2.9219 8.3203-0.1171 11.359zm-2.8829-1.3594c3.3594-1.6797 3.6407-5.6016 1.6016-7.6406-3.1562-3.1563-14.156-3.2344-18.875-0.875-3.4453 1.7187-3.4453 5.5546-1.4453 7.5546 3.8437 3.8438 14.883 2.8829 18.719 0.961z"/>
</g>
<path d="m199.31 2486.9v-17.516h4.6875v1.2344c-1.4453 0.039-1.9219 0.5625-1.9219 2.3984v11.164c7.0782-2.6016 13.555-9.3204 23.234-9.3204 0.0469 0 0.2813 0 0.6875 0.039v3.7188c-0.7266-0.078-1.0469-0.078-1.5625-0.078-9.9609 0-17.641 8.3594-25.125 8.3594z"/>
<path d="m224.04 2824.7c3.6406 3.6328 3.6797 11.039-0.1641 14.875-3.4766 3.4844-10.836 2.9609-12.68-2.9609h-0.0781c-2.1172 4.3203-7.0391 4.8828-10 1.9218-3.1641-3.1562-3.0391-9.8828 0.0781-13 2.7188-2.7187 8.0781-2.7187 9.9219 1.961h0.0781c2.7578-6.2422 9.9219-5.7188 12.844-2.7969zm-21.445 11.234c1.4453 1.4453 4.164 1.6406 5.8437-0.039 1.8359-1.8359 2.0391-5.7578 0.0391-7.7578-1.5235-1.5234-4.3203-1.5625-5.8438-0.039-1.914 1.9141-1.8359 6.0391-0.039 7.836zm11.445 0.6797c2.1172 2.125 6.2734 2.2812 8.5547 0 2.2421-2.2344 2.0859-6.7969 0-8.875-2.1954-2.2032-6.2813-2.2032-8.5547 0.078-2.2422 2.2422-2 6.7969 0 8.7969z" fill="#fff"/>
<path d="m208.84 1764.1-6.7578 0.2813v10.914l-2.7656 1.4844v-14.961l13.164-0.5235 0.6797 2.125c-4.7969 2.7969-3.7969 8.2813-2 10.078 2.3203 2.3203 6.8828 2.1172 9.6796-0.6797 3.5235-3.5235 3.4375-9.5235 2.3594-10.602-0.4765-0.4765-1.039-0.5625-1.5625-0.6797v-1.2422h4.7266c0.7187 5.2813-0.3203 11.562-4.086 15.32-3.3984 3.3984-9.1953 4.3984-12.961 0.6406-3.1953-3.1563-3.0391-8.875-0.4766-12.156z"/>
<path d="m211.91 2118c-2.836 0.086-6.4375 1.125-8.6016 3.2812-3.0781 3.086-2.5937 8.8438 0.2813 9.2422v1.2422h-3.875c-1.4454-3.7187-1.5625-9.164 2.1953-12.922 5.6406-5.6406 17.766-5.3203 22.398-0.6796 3.5234 3.5234 3.0469 9.5234-0.1953 12.758-3.1641 3.164-9.8828 3.6406-13.523 0-3.875-3.875-2.7969-10.438 1.3203-12.922zm0.5234 10.367c2.6406 2.6328 8.0781 2.1172 10.195-0.047 1.8438-1.8359 2.6016-5.3984-0.1172-8.1172-2.5156-2.5156-7.5625-2.3203-10 0.1172-2.2031 2.2031-2.2422 5.8828-0.0781 8.0469z" fill="#fff"/>
<path d="m223 1067.9c-4.2031 4.2031-11.242 3.1641-12.883-3.2422h-0.0781c-1.6407 4.7266-6.3594 5.4844-8.9219 2.9219-3.2031-3.1953-2.8047-9.9609-0.6406-14.359h3.8359v1.2422c-4.0391 1.7188-3.7187 8.1563-1.7969 10.078 1.3985 1.3985 3.6407 1.1641 4.961-0.1562 1.2422-1.2422 1.6406-3.6016 1.7187-6.125h2.4844c0.1562 4.125 0.6797 5.9609 1.875 7.164 1.8047 1.7969 6 1.5938 8.2812-0.6796 2.7188-2.7266 3.7579-10.203-0.039-11.68v-1.2422h4.2031c1.7188 5.3984 0.7969 12.281-3 16.078z"/>
<path d="m224.8 1422.3c-0.0391-1.3203-0.3203-1.5547-1.7969-1.5547h-3.0859v3.4766h-2.7578v-3.4766h-18.078v-2.6015l18.078-13.438h2.7578v12.758h3.0859c1.3984 0 1.6328-0.2032 1.7969-1.5235h1.2031v6.3594zm-7.6406-4.8359v-9.7578l-13.242 9.7578z" fill="#fff"/>
<path d="m8195.2 351.23h19.844c2.5547 0 2.6407-1 2.7188-3.2813h1.2031v9.4844h-1.2031c-0.078-2 0.2422-2.9219-2.4844-2.9219h-23v-1.9218c1.5234-1.7188 2.3203-3.5157 2.9219-6.5157h1.2812c-0.1562 1.9141-0.6015 3.7188-1.2812 5.1563z"/>
<path d="m8199.8 711.36c8.1172 0 7.9219-14.562 19.203-14.562v18.719h-4.6016v-1.2422c1.3985-0.3203 1.836-1 1.836-2.914v-11.281c-7.1172 2.1172-7.0391 14.961-16.641 14.961-7.0391 0-10.195-9.6797-5.7188-17.406h4.5234v1.2813c-6.164 2.164-5.2031 12.445 1.3985 12.445z" fill="#fff"/>
<g>
<path d="m8195.2 5304.2h19.844c2.5547 0 2.6407-1 2.7188-3.2813h1.2031v9.4844h-1.2031c-0.078-2 0.2422-2.9219-2.4844-2.9219h-23v-1.9218c1.5234-1.7188 2.3203-3.5157 2.9219-6.5157h1.2812c-0.1562 1.9141-0.6015 3.7188-1.2812 5.1563z"/>
<path d="m8201.8 5322.1-6.7578 0.2813v10.914l-2.7656 1.4844v-14.961l13.164-0.5235 0.6797 2.125c-4.7969 2.7969-3.7969 8.2813-2 10.078 2.3203 2.3203 6.8828 2.1172 9.6796-0.6797 3.5235-3.5235 3.4375-9.5235 2.3594-10.602-0.4765-0.4765-1.039-0.5625-1.5625-0.6797v-1.2422h4.7266c0.7187 5.2813-0.3203 11.562-4.086 15.32-3.3984 3.3984-9.1953 4.3984-12.961 0.6406-3.1953-3.1563-3.0391-8.875-0.4766-12.156z"/>
</g>
<g fill="#fff">
<path d="m8195.2 5659.2h19.844c2.5547 0 2.6407-1 2.7188-3.2813h1.2031v9.4844h-1.2031c-0.078-2 0.2422-2.9219-2.4844-2.9219h-23v-1.9218c1.5234-1.7188 2.3203-3.5157 2.9219-6.5157h1.2812c-0.1562 1.9141-0.6015 3.7188-1.2812 5.1563z"/>
<path d="m8204.9 5676c-2.836 0.086-6.4375 1.125-8.6016 3.2812-3.0781 3.086-2.5937 8.8438 0.2813 9.2422v1.2422h-3.875c-1.4454-3.7187-1.5625-9.164 2.1953-12.922 5.6406-5.6406 17.766-5.3203 22.398-0.6796 3.5234 3.5234 3.0469 9.5234-0.1953 12.758-3.1641 3.164-9.8828 3.6406-13.523 0-3.875-3.875-2.7969-10.438 1.3203-12.922zm0.5234 10.367c2.6406 2.6328 8.0781 2.1172 10.195-0.047 1.8438-1.8359 2.6016-5.3984-0.1172-8.1172-2.5156-2.5156-7.5625-2.3203-10 0.1172-2.2031 2.2031-2.2422 5.8828-0.078 8.0469z"/>
</g>
<g>
<path d="m8195.2 4596.2h19.844c2.5547 0 2.6407-1 2.7188-3.2813h1.2031v9.4844h-1.2031c-0.078-2 0.2422-2.9219-2.4844-2.9219h-23v-1.9218c1.5234-1.7188 2.3203-3.5157 2.9219-6.5157h1.2812c-0.1562 1.9141-0.6015 3.7188-1.2812 5.1563z"/>
<path d="m8216 4625.9c-4.2031 4.2031-11.242 3.1641-12.883-3.2422h-0.078c-1.6407 4.7266-6.3594 5.4844-8.9219 2.9219-3.2031-3.1953-2.8047-9.9609-0.6406-14.359h3.8359v1.2422c-4.0391 1.7188-3.7187 8.1563-1.7969 10.078 1.3985 1.3985 3.6407 1.1641 4.961-0.1562 1.2422-1.2422 1.6406-3.6016 1.7187-6.125h2.4844c0.1562 4.125 0.6797 5.9609 1.875 7.164 1.8047 1.7969 6 1.5938 8.2812-0.6796 2.7188-2.7266 3.7579-10.203-0.039-11.68v-1.2422h4.203c1.7188 5.3984 0.7969 12.281-3 16.078z"/>
</g>
<g fill="#fff">
<path d="m8195.2 4950.2h19.844c2.5547 0 2.6407-1 2.7188-3.2813h1.2031v9.4844h-1.2031c-0.078-2 0.2422-2.9219-2.4844-2.9219h-23v-1.9218c1.5234-1.7188 2.3203-3.5157 2.9219-6.5157h1.2812c-0.1562 1.9141-0.6015 3.7188-1.2812 5.1563z"/>
<path d="m8217.8 4980.3c-0.039-1.3203-0.3203-1.5547-1.7969-1.5547h-3.0859v3.4766h-2.7578v-3.4766h-18.078v-2.6015l18.078-13.438h2.7578v12.758h3.0859c1.3984 0 1.6328-0.2032 1.7969-1.5235h1.2031v6.3594zm-7.6406-4.8359v-9.7578l-13.242 9.7578z"/>
</g>
<g>
<path d="m8195.2 3887.2h19.844c2.5547 0 2.6407-1 2.7188-3.2813h1.2031v9.4844h-1.2031c-0.078-2 0.2422-2.9219-2.4844-2.9219h-23v-1.9218c1.5234-1.7188 2.3203-3.5157 2.9219-6.5157h1.2812c-0.1562 1.9141-0.6015 3.7188-1.2812 5.1563z"/>
<path d="m8195.2 3909.2h19.844c2.5547 0 2.6407-1 2.7188-3.2813h1.2031v9.4844h-1.2031c-0.078-2 0.2422-2.9219-2.4844-2.9219h-23v-1.9218c1.5234-1.7188 2.3203-3.5157 2.9219-6.5157h1.2812c-0.1562 1.9141-0.6015 3.7188-1.2812 5.1563z"/>
</g>
<g fill="#fff">
<path d="m8195.2 4241.2h19.844c2.5547 0 2.6407-1 2.7188-3.2813h1.2031v9.4844h-1.2031c-0.078-2 0.2422-2.9219-2.4844-2.9219h-23v-1.9218c1.5234-1.7188 2.3203-3.5157 2.9219-6.5157h1.2812c-0.1562 1.9141-0.6015 3.7188-1.2812 5.1563z"/>
<path d="m8199.8 4269.4c8.1172 0 7.9219-14.562 19.203-14.562v18.719h-4.6016v-1.2422c1.3985-0.3203 1.836-1 1.836-2.914v-11.281c-7.1172 2.1172-7.0391 14.961-16.641 14.961-7.0391 0-10.195-9.6797-5.7188-17.406h4.5234v1.2813c-6.164 2.164-5.2031 12.445 1.3985 12.445z"/>
</g>
<path d="m8206.7 3193c2.8359-0.086 6.1953-1.2032 8.2344-3.2422 3.3984-3.3985 2.6015-9.2422-0.3203-9.5235v-1.2343h3.9609c1.3984 3.9531 1.8828 9.1562-2.1953 13.234-5.6016 5.6407-17.562 5.3594-22.164 0.7188-3.4765-3.4766-3-9.4766 0.2031-12.68 3.1563-3.1562 9.7969-3.6328 13.398 0 3.8359 3.8438 2.9609 10.281-1.1172 12.727zm-0.7266-10.203c-2.5937-2.6015-8-2.0781-10.078 0.039-1.8359 1.8438-2.5625 5.3984 0.125 8.1172 2.4766 2.4844 7.4766 2.2812 9.875-0.1172 2.2031-2.1953 2.2422-5.8828 0.078-8.0391z"/>
<g fill="#fff">
<path d="m8195.2 3533.2h19.844c2.5547 0 2.6407-1 2.7188-3.2813h1.2031v9.4844h-1.2031c-0.078-2 0.2422-2.9219-2.4844-2.9219h-23v-1.9218c1.5234-1.7188 2.3203-3.5157 2.9219-6.5157h1.2812c-0.1562 1.9141-0.6015 3.7188-1.2812 5.1563z"/>
<path d="m8217.2 3561.6c-4.8829 4.8828-17.719 5.2421-22.883 0.086-3.2343-3.2422-3.2734-8.3203-0.2343-11.367 5.1562-5.1562 18.359-4.875 23.234-0.078 3.2422 3.2422 2.9219 8.3203-0.1171 11.359zm-2.8829-1.3594c3.3594-1.6797 3.6407-5.6016 1.6016-7.6406-3.1562-3.1563-14.156-3.2344-18.875-0.875-3.4453 1.7187-3.4453 5.5546-1.4453 7.5546 3.8437 3.8438 14.883 2.8829 18.719 0.961z"/>
</g>
<path d="m8192.3 2486.9v-17.516h4.6875v1.2344c-1.4453 0.039-1.9219 0.5625-1.9219 2.3984v11.164c7.0782-2.6016 13.555-9.3204 23.234-9.3204 0.047 0 0.2813 0 0.6875 0.039v3.7188c-0.7266-0.078-1.0469-0.078-1.5625-0.078-9.9609 0-17.641 8.3594-25.125 8.3594z"/>
<path d="m8217 2824.7c3.6406 3.6328 3.6797 11.039-0.1641 14.875-3.4766 3.4844-10.836 2.9609-12.68-2.9609h-0.078c-2.1172 4.3203-7.0391 4.8828-10 1.9218-3.1641-3.1562-3.0391-9.8828 0.078-13 2.7188-2.7187 8.0781-2.7187 9.9219 1.961h0.078c2.7578-6.2422 9.9219-5.7188 12.844-2.7969zm-21.445 11.234c1.4453 1.4453 4.164 1.6406 5.8437-0.039 1.8359-1.8359 2.0391-5.7578 0.039-7.7578-1.5235-1.5234-4.3203-1.5625-5.8438-0.039-1.914 1.9141-1.8359 6.0391-0.039 7.836zm11.445 0.6797c2.1172 2.125 6.2734 2.2812 8.5547 0 2.2421-2.2344 2.0859-6.7969 0-8.875-2.1954-2.2032-6.2813-2.2032-8.5547 0.078-2.2422 2.2422-2 6.7969 0 8.7969z" fill="#fff"/>
<path d="m8201.8 1764.1-6.7578 0.2813v10.914l-2.7656 1.4844v-14.961l13.164-0.5235 0.6797 2.125c-4.7969 2.7969-3.7969 8.2813-2 10.078 2.3203 2.3203 6.8828 2.1172 9.6796-0.6797 3.5235-3.5235 3.4375-9.5235 2.3594-10.602-0.4765-0.4765-1.039-0.5625-1.5625-0.6797v-1.2422h4.7266c0.7187 5.2813-0.3203 11.562-4.086 15.32-3.3984 3.3984-9.1953 4.3984-12.961 0.6406-3.1953-3.1563-3.0391-8.875-0.4766-12.156z"/>
<path d="m8204.9 2118c-2.836 0.086-6.4375 1.125-8.6016 3.2812-3.0781 3.086-2.5937 8.8438 0.2813 9.2422v1.2422h-3.875c-1.4454-3.7187-1.5625-9.164 2.1953-12.922 5.6406-5.6406 17.766-5.3203 22.398-0.6796 3.5234 3.5234 3.0469 9.5234-0.1953 12.758-3.1641 3.164-9.8828 3.6406-13.523 0-3.875-3.875-2.7969-10.438 1.3203-12.922zm0.5234 10.367c2.6406 2.6328 8.0781 2.1172 10.195-0.047 1.8438-1.8359 2.6016-5.3984-0.1172-8.1172-2.5156-2.5156-7.5625-2.3203-10 0.1172-2.2031 2.2031-2.2422 5.8828-0.078 8.0469z" fill="#fff"/>
<path d="m8216 1067.9c-4.2031 4.2031-11.242 3.1641-12.883-3.2422h-0.078c-1.6407 4.7266-6.3594 5.4844-8.9219 2.9219-3.2031-3.1953-2.8047-9.9609-0.6406-14.359h3.8359v1.2422c-4.0391 1.7188-3.7187 8.1563-1.7969 10.078 1.3985 1.3985 3.6407 1.1641 4.961-0.1562 1.2422-1.2422 1.6406-3.6016 1.7187-6.125h2.4844c0.1562 4.125 0.6797 5.9609 1.875 7.164 1.8047 1.7969 6 1.5938 8.2812-0.6796 2.7188-2.7266 3.7579-10.203-0.039-11.68v-1.2422h4.203c1.7188 5.3984 0.7969 12.281-3 16.078z"/>
<path d="m8217.8 1422.3c-0.039-1.3203-0.3203-1.5547-1.7969-1.5547h-3.0859v3.4766h-2.7578v-3.4766h-18.078v-2.6015l18.078-13.438h2.7578v12.758h3.0859c1.3984 0 1.6328-0.2032 1.7969-1.5235h1.2031v6.3594zm-7.6406-4.8359v-9.7578l-13.242 9.7578z" fill="#fff"/>
<text transform="scale(1,-1)" x="3227.3948" y="-5771.7432" fill="#000000" font-family="'Roboto Black'" font-size="35px" font-style="italic" font-weight="900" stroke="#000000" stroke-width="1.4173" xml:space="preserve"><tspan x="3227.3948" y="-5771.7432" font-family="'Times New Roman'" font-size="35px" font-style="normal" font-weight="bold" stroke-width="1.4173">I</tspan></text>
<text transform="scale(1,-1)" x="2522.3738" y="-5771.7832" fill="#000000" font-family="'Roboto Black'" font-size="35px" font-style="italic" font-weight="900" stroke="#000000" stroke-width="1.4173" xml:space="preserve"><tspan x="2522.3738" y="-5771.7832" font-family="'Times New Roman'" font-size="35px" font-style="normal" font-weight="bold" stroke-width="1.4173">G</tspan></text>
<text transform="scale(1,-1)" x="1809.9628" y="-5772.2964" fill="#000000" font-family="'Roboto Black'" font-size="35px" font-style="italic" font-weight="900" stroke="#000000" stroke-width="1.4173" xml:space="preserve"><tspan x="1809.9628" y="-5772.2964" font-family="'Times New Roman'" font-size="35px" font-style="normal" font-weight="bold" stroke-width="1.4173">E</tspan></text>
<text transform="scale(1,-1)" x="1103.2017" y="-5770.7554" fill="#000000" font-family="'Roboto Black'" font-size="35px" font-style="italic" font-weight="900" stroke="#000000" stroke-width="1.4173" xml:space="preserve"><tspan x="1103.2017" y="-5770.7554" font-family="'Times New Roman'" font-size="35px" font-style="normal" font-weight="bold" stroke-width="1.4173">C</tspan></text>
<text transform="scale(1,-1)" x="392.84515" y="-5771.269" fill="#000000" font-family="'Roboto Black'" font-size="35px" font-style="italic" font-weight="900" stroke="#000000" stroke-width="1.4173" xml:space="preserve"><tspan x="392.84515" y="-5771.269" font-family="'Times New Roman'" font-size="35px" font-style="normal" font-weight="bold" stroke-width="1.4173">A</tspan></text>
<text transform="scale(1,-1)" x="3934.8691" y="-5770.5864" fill="#000000" font-family="'Roboto Black'" font-size="35px" font-style="italic" font-weight="900" stroke="#000000" stroke-width="1.4173" xml:space="preserve"><tspan x="3934.8691" y="-5770.5864" font-family="'Times New Roman'" font-size="35px" font-style="normal" font-weight="bold" stroke-width="1.4173">K</tspan></text>
<text transform="scale(1,-1)" x="7840.2554" y="-5769.728" fill="#000000" font-family="'Roboto Black'" font-size="35px" font-style="italic" font-weight="900" stroke="#000000" stroke-width="1.4173" xml:space="preserve"><tspan x="7840.2554" y="-5769.728" fill="#ffffff" font-family="'Times New Roman'" font-size="35px" font-style="normal" font-weight="bold" stroke="none" stroke-width="0">V</tspan></text>
</g>
</svg>